<svg width="21" height="38" viewBox="0 0 21 38" fill="none" xmlns="http://www.w3.org/2000/svg">
<path d="M19.466 20.412L4.59999 37.3C4.36096 37.5743 4.05285 37.7797 3.70766 37.8947C3.36246 38.0097 2.99278 38.0302 2.63699 37.954C2.27919 37.8748 1.94865 37.7025 1.67878 37.4545C1.4089 37.2066 1.20925 36.8918 1.09999 36.542C0.9879 36.1899 0.968586 35.8148 1.04392 35.4531C1.11925 35.0913 1.28667 34.7551 1.52999 34.477L15.156 19L1.52999 3.52303C1.28667 3.24493 1.11925 2.90874 1.04392 2.54698C0.968586 2.18522 0.9879 1.81014 1.09999 1.45803C1.20916 1.10835 1.40866 0.793663 1.67835 0.545746C1.94804 0.297829 2.27837 0.125458 2.63599 0.0460358C2.99193 -0.0302963 3.36182 -0.00989914 3.7072 0.105114C4.05259 0.220127 4.36087 0.425552 4.59999 0.700035L19.466 17.588C19.6533 17.7995 19.7969 18.0459 19.8886 18.3132C19.9802 18.5804 20.0181 18.8631 20 19.145C19.9666 19.6147 19.7788 20.0601 19.466 20.412Z" fill="#DDDDDD"/>
</svg>
