<svg width="20" height="38" viewBox="0 0 20 38" fill="none" xmlns="http://www.w3.org/2000/svg">
<path d="M0.538407 17.5871L15.4044 0.699126C15.6434 0.424811 15.9515 0.219491 16.2967 0.104485C16.6419 -0.0105202 17.0116 -0.0310162 17.3674 0.0451256C17.7252 0.12439 18.0557 0.296692 18.3256 0.54462C18.5955 0.792549 18.7951 1.10732 18.9044 1.45713C19.0165 1.80923 19.0358 2.18431 18.9605 2.54607C18.8851 2.90783 18.7177 3.24402 18.4744 3.52213L4.84841 18.9991L18.4744 34.4761C18.7177 34.7542 18.8851 35.0904 18.9605 35.4522C19.0358 35.8139 19.0165 36.189 18.9044 36.5411C18.7952 36.8908 18.5957 37.2055 18.326 37.4534C18.0564 37.7013 17.726 37.8737 17.3684 37.9531C17.0125 38.0295 16.6426 38.0091 16.2972 37.894C15.9518 37.779 15.6435 37.5736 15.4044 37.2991L0.538407 20.4111C0.351077 20.1997 0.207447 19.9532 0.115798 19.686C0.0241483 19.4188 -0.0137089 19.136 0.00440656 18.8541C0.0378255 18.3845 0.225565 17.939 0.538407 17.5871Z" fill="#DDDDDD"/>
</svg>
