<svg xmlns="http://www.w3.org/2000/svg" width="55" height="55" viewBox="0 0 55 55">
  <g id="Grupo_36" data-name="Grupo 36" transform="translate(-657 -1735)">
    <circle id="Elipse_4" data-name="Elipse 4" cx="27.5" cy="27.5" r="27.5" transform="translate(657 1735)" fill="#692fa5"/>
    <path id="Carro_e_SUV" data-name="Carro e SUV" d="M0-11.25a7.5,7.5,0,0,0,7.5-7.5A7.5,7.5,0,0,0,0-26.25a7.5,7.5,0,0,0-7.5,7.5A7.5,7.5,0,0,0,0-11.25ZM5.25-9.375H4.271A10.211,10.211,0,0,1,0-8.437a10.231,10.231,0,0,1-4.271-.937H-5.25A7.877,7.877,0,0,0-13.125-1.5V.937A2.813,2.813,0,0,0-10.313,3.75H10.312A2.813,2.813,0,0,0,13.125.937V-1.5A7.877,7.877,0,0,0,5.25-9.375Z" transform="translate(685 1774)" fill="#fff"/>
  </g>
</svg>
